<svg xmlns="http://www.w3.org/2000/svg" xmlns:xlink="http://www.w3.org/1999/xlink" width="800" zoomAndPan="magnify" viewBox="0 0 600 599.999999" height="800" preserveAspectRatio="xMidYMid meet" version="1.0"><defs><clipPath id="d8e7451092"><path d="M 0.394531 196.703125 L 599.589844 196.703125 L 599.589844 597.734375 L 0.394531 597.734375 Z M 0.394531 196.703125 " clip-rule="nonzero"/></clipPath></defs><g clip-path="url(#d8e7451092)"><path fill="#ffffff" d="M 82.871094 215.421875 L 82.871094 262.210938 L 82.46875 264.878906 C 78 279.75 72.066406 297.277344 65.628906 316.320312 C 44.792969 377.917969 18.484375 455.6875 19.058594 511.292969 C 19.46875 551.339844 34.746094 579.5 79.136719 579.042969 L 79.210938 579.003906 L 520.777344 579.003906 L 520.847656 579.042969 C 565.242188 579.5 580.519531 551.339844 580.933594 511.292969 C 581.503906 455.6875 555.195312 377.910156 534.359375 316.320312 C 527.921875 297.277344 521.992188 279.75 517.519531 264.878906 L 517.121094 262.210938 L 517.121094 215.421875 L 299.996094 215.613281 Z M 64.144531 260.871094 L 64.144531 196.753906 L 73.503906 196.761719 L 299.996094 196.964844 L 526.480469 196.761719 L 535.847656 196.753906 L 535.847656 260.871094 C 540.234375 275.351562 545.910156 292.132812 552.066406 310.320312 C 573.332031 373.207031 600.191406 452.601562 599.589844 511.4375 C 599.0625 562.421875 579.023438 598.261719 520.777344 597.699219 L 520.777344 597.734375 L 79.210938 597.734375 L 79.210938 597.699219 C 20.96875 598.261719 0.925781 562.421875 0.40625 511.4375 C -0.195312 452.601562 26.65625 373.207031 47.925781 310.320312 C 54.078125 292.132812 59.753906 275.351562 64.144531 260.871094 " fill-opacity="1" fill-rule="nonzero"/></g><path fill="#ffffff" d="M 458.121094 273.875 C 469.792969 273.875 479.253906 283.332031 479.253906 295.003906 C 479.253906 306.675781 469.792969 316.136719 458.121094 316.136719 C 446.449219 316.136719 436.988281 306.675781 436.988281 295.003906 C 436.988281 283.332031 446.449219 273.875 458.121094 273.875 " fill-opacity="1" fill-rule="evenodd"/><path fill="#ffffff" d="M 141.867188 273.875 C 153.539062 273.875 163.003906 283.332031 163.003906 295.003906 C 163.003906 306.675781 153.539062 316.136719 141.867188 316.136719 C 130.199219 316.136719 120.734375 306.675781 120.734375 295.003906 C 120.734375 283.332031 130.199219 273.875 141.867188 273.875 " fill-opacity="1" fill-rule="evenodd"/><path fill="#ffffff" d="M 128.585938 303.546875 C 128.585938 308.714844 132.777344 312.90625 137.945312 312.90625 C 143.121094 312.90625 147.3125 308.714844 147.3125 303.546875 C 147.3125 165.625 187.242188 77.871094 238.347656 39.921875 C 257.371094 25.789062 277.941406 18.71875 298.425781 18.71875 C 318.910156 18.71875 339.472656 25.789062 358.503906 39.921875 C 409.613281 77.871094 449.542969 165.625 449.542969 303.546875 C 449.542969 308.714844 453.734375 312.90625 458.902344 312.90625 C 464.078125 312.90625 468.269531 308.714844 468.269531 303.546875 C 468.269531 159.046875 425.003906 66.046875 369.625 24.925781 C 347.246094 8.304688 322.875 -0.0078125 298.425781 -0.0078125 C 273.976562 -0.0078125 249.605469 8.304688 227.226562 24.925781 C 171.847656 66.046875 128.585938 159.046875 128.585938 303.546875 " fill-opacity="1" fill-rule="nonzero"/></svg>