<svg xmlns="http://www.w3.org/2000/svg" xmlns:xlink="http://www.w3.org/1999/xlink" width="800" zoomAndPan="magnify" viewBox="0 0 600 599.999999" height="800" preserveAspectRatio="xMidYMid meet" version="1.0"><path fill="#000000" d="M 80.078125 0 C 36.132812 0 0 36.132812 0 80.078125 L 0 520.117188 C 0 563.867188 36.132812 600 80.078125 600 L 520.117188 600 C 563.867188 600 600 563.867188 600 520.117188 L 600 80.078125 C 600 36.132812 563.867188 0 520.117188 0 Z M 450 50 L 520.117188 50 C 536.71875 50 550 63.28125 550 80.078125 L 550 150 L 450 150 Z M 300 200 C 355.46875 200 400 244.53125 400 300 C 400 355.46875 355.46875 400 300 400 C 244.53125 400 200 355.46875 200 300 C 200 244.53125 244.53125 200 300 200 Z M 50 300 L 150 300 C 150 382.617188 217.382812 450 300 450 C 382.617188 450 450 382.617188 450 300 L 550 300 L 550 520.117188 C 550 536.71875 536.71875 550 520.117188 550 L 80.078125 550 C 63.28125 550 50 536.71875 50 520.117188 Z M 50 300 " fill-opacity="1" fill-rule="nonzero"/></svg>