<svg xmlns="http://www.w3.org/2000/svg" xmlns:xlink="http://www.w3.org/1999/xlink" width="800" zoomAndPan="magnify" viewBox="0 0 600 599.999999" height="800" preserveAspectRatio="xMidYMid meet" version="1.0"><path fill="#ffffff" d="M 45.335938 61.089844 C 41.3125 60.863281 37.320312 60.914062 33.445312 61.429688 C 25.707031 62.453125 18.453125 65.300781 12.410156 71.304688 C 6.664062 77 4.488281 84.679688 4.152344 91.449219 C 3.816406 98.21875 4.933594 104.726562 6.355469 111.324219 C 9.203125 124.519531 13.566406 138.253906 15 149.84375 C 16.332031 160.625 13.675781 180.332031 10.132812 205.453125 C 6.589844 230.574219 2.507812 261.46875 2.507812 297.066406 C 2.507812 314.269531 5.253906 342.394531 16.039062 371.582031 C 18.777344 378.996094 22.082031 386.488281 25.992188 393.855469 C 27.238281 410.125 17.941406 430.976562 13.402344 453.679688 C 12.390625 458.707031 7.898438 470.695312 5.242188 483.09375 C 3.914062 489.300781 2.980469 495.824219 3.570312 502.65625 C 4.164062 509.492188 6.601562 517.070312 12.410156 522.824219 L 12.433594 522.847656 C 24.570312 534.820312 41.539062 534.195312 57.488281 531.683594 C 73.4375 529.175781 90.238281 523.882812 105.035156 519.726562 C 141.582031 509.449219 209.863281 519.457031 293.390625 519.457031 L 306.609375 519.457031 C 349.246094 519.457031 387.675781 516.558594 420.179688 515.320312 C 430.289062 514.9375 439.8125 514.726562 448.675781 514.785156 C 467.191406 514.90625 482.863281 516.324219 494.964844 519.726562 C 509.761719 523.882812 526.5625 529.199219 542.511719 531.710938 C 558.464844 534.21875 575.421875 534.839844 587.566406 522.871094 C 596.28125 514.28125 596.886719 502.601562 595.871094 493.722656 C 594.859375 484.84375 592.265625 476.882812 591.152344 472.226562 C 589.460938 465.15625 585.996094 458.28125 581.613281 449.46875 C 580.835938 447.910156 579.824219 445.964844 578.996094 444.335938 C 580.894531 431.351562 585.160156 405.394531 589.261719 376.886719 C 593.566406 346.964844 597.492188 316.242188 597.492188 297.066406 C 597.492188 261.46875 593.410156 230.574219 589.867188 205.453125 C 586.324219 180.332031 583.667969 160.625 585 149.84375 C 586.433594 138.253906 590.796875 124.519531 593.644531 111.324219 C 595.066406 104.726562 596.183594 98.21875 595.847656 91.449219 C 595.511719 84.679688 593.335938 77 587.589844 71.304688 C 581.546875 65.300781 574.292969 62.453125 566.554688 61.429688 C 558.804688 60.402344 550.585938 61.191406 542.609375 62.445312 C 526.65625 64.953125 509.832031 70.253906 494.988281 74.40625 C 458.410156 84.644531 390.128906 74.671875 306.609375 74.671875 L 293.390625 74.671875 C 273.457031 74.671875 226.332031 73.132812 179.117188 89.511719 C 157.503906 89.835938 122.867188 79.40625 105.011719 74.40625 C 90.167969 70.253906 73.34375 64.953125 57.390625 62.445312 C 53.402344 61.816406 49.355469 61.316406 45.335938 61.089844 Z M 44.609375 86.050781 C 47.265625 86.144531 50.246094 86.425781 53.542969 86.945312 C 66.722656 89.019531 82.988281 93.984375 98.328125 98.277344 C 107.449219 100.828125 122.207031 105.398438 138.398438 109.050781 C 121.125 120.058594 104.949219 134.421875 91.527344 153.597656 L 111.816406 167.832031 C 161.703125 96.566406 258.125 99.460938 293.390625 99.460938 L 306.609375 99.460938 C 387.925781 99.460938 454.554688 111.464844 501.671875 98.277344 C 517.011719 93.984375 533.277344 89.019531 546.457031 86.945312 C 559.640625 84.871094 567.851562 86.609375 570.136719 88.882812 L 570.136719 88.90625 L 570.160156 88.90625 C 570.4375 89.183594 570.933594 89.703125 571.082031 92.683594 C 571.230469 95.664062 570.625 100.457031 569.410156 106.097656 C 566.976562 117.371094 562.257812 131.78125 560.402344 146.792969 C 558.277344 163.988281 561.800781 183.984375 565.316406 208.917969 C 568.835938 233.847656 572.703125 263.359375 572.703125 297.066406 C 572.703125 312.585938 568.96875 343.761719 564.714844 373.351562 C 562.757812 386.957031 561.570312 394.238281 559.75 405.9375 C 557.324219 400.75 555.09375 395.710938 553.261719 391.074219 C 549.75 382.1875 547.910156 374.355469 547.910156 371.4375 L 523.121094 371.4375 C 523.121094 380.917969 526.210938 390.046875 530.214844 400.175781 C 534.214844 410.304688 539.390625 421.101562 544.644531 431.550781 C 549.898438 442.003906 555.230469 452.105469 559.410156 460.507812 C 563.589844 468.910156 566.625 476.261719 567.039062 477.988281 C 568.539062 484.273438 570.625 491.050781 571.25 496.53125 C 571.875 502.011719 571.0625 504.332031 570.183594 505.199219 C 567.8125 507.535156 559.535156 509.28125 546.363281 507.207031 C 533.1875 505.136719 516.980469 500.171875 501.695312 495.878906 C 486.101562 491.496094 468.480469 490.121094 448.84375 489.996094 C 439.433594 489.933594 429.578125 490.164062 419.257812 490.550781 L 419.234375 490.550781 C 386.015625 491.816406 348.113281 494.667969 306.609375 494.667969 L 293.390625 494.667969 C 212.078125 494.667969 145.429688 482.601562 98.304688 495.855469 C 83.019531 500.148438 66.808594 505.113281 53.636719 507.183594 C 40.480469 509.253906 32.238281 507.527344 29.863281 505.199219 L 29.839844 505.199219 C 29.140625 504.5 28.519531 503.449219 28.265625 500.503906 C 28.007812 497.539062 28.4375 493.121094 29.476562 488.277344 C 31.550781 478.589844 35.800781 468.054688 37.707031 458.523438 C 39.679688 448.660156 44.125 437.207031 47.367188 424.628906 C 56.148438 434.308594 66.589844 443.03125 78.984375 450.121094 L 91.308594 428.597656 C 64.699219 413.382812 48.738281 388.519531 39.304688 362.988281 C 29.871094 337.457031 27.296875 311.492188 27.296875 297.066406 C 27.296875 263.359375 31.164062 233.847656 34.683594 208.917969 C 38.199219 183.984375 41.722656 163.988281 39.597656 146.792969 C 37.742188 131.78125 33.023438 117.371094 30.589844 106.097656 C 29.375 100.457031 28.769531 95.664062 28.917969 92.683594 C 29.066406 89.703125 29.5625 89.183594 29.839844 88.90625 L 29.863281 88.90625 L 29.863281 88.882812 C 31.578125 87.175781 36.628906 85.769531 44.609375 86.050781 Z M 44.609375 86.050781 " fill-opacity="1" fill-rule="nonzero"/></svg>