<svg xmlns="http://www.w3.org/2000/svg" xmlns:xlink="http://www.w3.org/1999/xlink" width="800" zoomAndPan="magnify" viewBox="0 0 600 599.999999" height="800" preserveAspectRatio="xMidYMid meet" version="1.0"><defs><clipPath id="db168c2228"><path d="M 8 19.160156 L 592 19.160156 L 592 565.160156 L 8 565.160156 Z M 8 19.160156 " clip-rule="nonzero"/></clipPath></defs><g clip-path="url(#db168c2228)"><path fill="#ffffff" d="M 563.167969 303.480469 L 503.941406 214.835938 C 486.402344 188.585938 470.699219 160.792969 457.269531 132.226562 L 433.214844 81.070312 C 415.5625 43.523438 377.34375 19.257812 335.851562 19.257812 L 264.148438 19.257812 C 222.65625 19.257812 184.4375 43.523438 166.785156 81.070312 L 142.730469 132.226562 C 129.300781 160.792969 113.597656 188.585938 96.058594 214.835938 L 36.832031 303.480469 C 6.148438 349.40625 -0.0273438 407.480469 20.3125 458.832031 C 32.773438 490.292969 54.15625 516.976562 82.144531 535.992188 C 110.136719 555.011719 142.816406 565.066406 176.65625 565.066406 L 423.34375 565.066406 C 457.183594 565.066406 489.863281 555.011719 517.855469 535.992188 C 545.84375 516.976562 567.226562 490.292969 579.6875 458.832031 C 600.027344 407.480469 593.851562 349.40625 563.167969 303.480469 Z M 562.613281 452.070312 C 551.515625 480.097656 532.46875 503.863281 507.535156 520.804688 C 482.601562 537.746094 453.488281 546.703125 423.34375 546.703125 L 176.65625 546.703125 C 146.511719 546.703125 117.398438 537.746094 92.464844 520.804688 C 67.53125 503.863281 48.484375 480.097656 37.382812 452.070312 C 19.265625 406.328125 24.765625 354.59375 52.097656 313.683594 L 111.328125 225.039062 C 129.371094 198.027344 145.527344 169.433594 159.347656 140.039062 L 183.402344 88.882812 C 198.042969 57.742188 229.738281 37.621094 264.148438 37.621094 L 335.851562 37.621094 C 370.261719 37.621094 401.957031 57.742188 416.597656 88.882812 L 440.652344 140.039062 C 454.472656 169.433594 470.628906 198.027344 488.671875 225.039062 L 547.902344 313.683594 C 575.234375 354.59375 580.734375 406.328125 562.613281 452.070312 Z M 562.613281 452.070312 " fill-opacity="1" fill-rule="nonzero"/></g><path fill="#ffffff" d="M 508.667969 380.148438 C 475.269531 365.777344 441.628906 354.832031 407.972656 347.351562 C 408.066406 347.070312 408.148438 346.78125 408.214844 346.488281 C 414.25 319.777344 433.308594 299.929688 466.472656 285.808594 C 471.136719 283.820312 473.308594 278.429688 471.324219 273.761719 C 469.335938 269.097656 463.941406 266.925781 459.277344 268.914062 C 420.296875 285.511719 397.734375 309.5625 390.304688 342.441406 C 390.207031 342.863281 390.152344 343.28125 390.117188 343.699219 C 360.011719 338.105469 329.917969 335.28125 300 335.28125 C 270.082031 335.28125 239.988281 338.105469 209.882812 343.699219 C 209.847656 343.28125 209.792969 342.863281 209.695312 342.441406 C 202.265625 309.5625 179.703125 285.511719 140.722656 268.914062 C 136.054688 266.925781 130.664062 269.097656 128.675781 273.761719 C 126.691406 278.429688 128.863281 283.820312 133.527344 285.808594 C 166.691406 299.929688 185.75 319.777344 191.785156 346.488281 C 191.851562 346.78125 191.933594 347.070312 192.027344 347.351562 C 158.371094 354.832031 124.730469 365.777344 91.332031 380.148438 C 86.671875 382.152344 84.523438 387.554688 86.527344 392.210938 C 88.53125 396.871094 93.933594 399.019531 98.589844 397.015625 C 165.464844 368.238281 233.226562 353.644531 300 353.644531 C 366.773438 353.644531 434.535156 368.238281 501.410156 397.015625 C 502.59375 397.523438 503.824219 397.765625 505.035156 397.765625 C 508.59375 397.765625 511.976562 395.6875 513.472656 392.210938 C 515.476562 387.554688 513.328125 382.152344 508.667969 380.148438 Z M 508.667969 380.148438 " fill-opacity="1" fill-rule="nonzero"/><path fill="#ffffff" d="M 300 310.753906 C 305.070312 310.753906 309.179688 306.644531 309.179688 301.570312 L 309.179688 251.636719 C 309.179688 246.566406 305.070312 242.457031 300 242.457031 C 294.929688 242.457031 290.820312 246.566406 290.820312 251.636719 L 290.820312 301.570312 C 290.820312 306.644531 294.929688 310.753906 300 310.753906 Z M 300 310.753906 " fill-opacity="1" fill-rule="nonzero"/></svg>