<svg xmlns="http://www.w3.org/2000/svg" xmlns:xlink="http://www.w3.org/1999/xlink" width="800" zoomAndPan="magnify" viewBox="0 0 600 599.999999" height="800" preserveAspectRatio="xMidYMid meet" version="1.0"><defs><clipPath id="ed5339af57"><path d="M 0 73 L 600 73 L 600 559.5 L 0 559.5 Z M 0 73 " clip-rule="nonzero"/></clipPath></defs><g clip-path="url(#ed5339af57)"><path fill="#000000" d="M 538.03125 194.230469 C 538.390625 199.507812 538.390625 204.785156 538.390625 210.101562 C 538.390625 372.351562 414.84375 559.464844 188.9375 559.464844 L 188.9375 559.367188 C 122.203125 559.476562 56.855469 540.371094 0.675781 504.332031 C 10.375 505.492188 20.132812 506.078125 29.914062 506.101562 C 85.21875 506.152344 138.941406 487.597656 182.449219 453.433594 C 129.890625 452.441406 83.804688 418.183594 67.703125 368.164062 C 86.117188 371.71875 105.082031 370.988281 123.148438 366.042969 C 65.847656 354.46875 24.625 304.136719 24.625 245.6875 C 24.625 245.148438 24.625 244.644531 24.625 244.132812 C 41.695312 253.636719 60.816406 258.914062 80.371094 259.5 C 26.40625 223.460938 9.777344 151.6875 42.367188 95.5625 C 104.722656 172.277344 196.722656 218.910156 295.484375 223.84375 C 285.585938 181.195312 299.113281 136.511719 331.023438 106.527344 C 380.492188 60.035156 458.292969 62.417969 504.796875 111.851562 C 532.296875 106.429688 558.664062 96.339844 582.789062 82.046875 C 573.617188 110.476562 554.4375 134.621094 528.800781 149.953125 C 553.144531 147.082031 576.933594 140.570312 599.335938 130.621094 C 582.835938 155.328125 562.0625 176.847656 538.03125 194.230469 Z M 538.03125 194.230469 " fill-opacity="1" fill-rule="nonzero"/></g></svg>