<svg xmlns="http://www.w3.org/2000/svg" xmlns:xlink="http://www.w3.org/1999/xlink" width="800" zoomAndPan="magnify" viewBox="0 0 600 599.999999" height="800" preserveAspectRatio="xMidYMid meet" version="1.0"><path fill="#ffffff" d="M 527.851562 579.011719 C 507.363281 556.566406 483 524.003906 442.789062 465.320312 C 394.3125 394.566406 338.109375 326.679688 330.160156 329.273438 C 326.429688 330.488281 320.25 340.65625 316.429688 351.863281 C 312.246094 364.132812 306.324219 371.289062 301.554688 369.839844 C 297.195312 368.519531 282.917969 367.691406 269.828125 367.996094 C 251.128906 368.4375 242.496094 372.5 229.566406 386.964844 C 213.914062 404.46875 211.9375 405.058594 189.425781 399 C 163.445312 392.003906 147.015625 397.328125 130.089844 418.234375 C 121.03125 429.417969 120.226562 429.441406 102.046875 419.007812 C 84.011719 408.65625 82.519531 408.65625 60.820312 419 C 40.199219 428.835938 37.722656 428.929688 31.289062 420.128906 C 27.425781 414.847656 22.410156 388.269531 20.144531 361.066406 C 16.472656 317 17.734375 306.488281 31.703125 264.574219 C 55.15625 194.203125 86.984375 133.703125 118.945312 98.734375 C 142.777344 72.65625 147.105469 64.421875 145.136719 48.878906 C 142.039062 24.40625 151.230469 19.671875 169.152344 36.507812 L 183.628906 50.105469 L 217.800781 34.011719 C 271.230469 8.84375 314.226562 0.34375 387.636719 0.4375 C 447.144531 0.511719 460.292969 2.582031 510.3125 19.773438 L 566.335938 39.03125 L 567.375 69.324219 C 568.351562 97.792969 567.355469 100.015625 550.863281 106.242188 C 534.792969 112.308594 533.507812 114.882812 535.597656 136.816406 C 537.9375 161.34375 533.421875 166.960938 511.367188 166.960938 C 494.71875 166.960938 474.410156 193.523438 470.867188 219.929688 C 467.789062 242.875 466.441406 244.316406 448.011719 244.316406 C 421.835938 244.316406 394.484375 267.898438 387.589844 296.417969 C 382.410156 317.84375 383.625 320.507812 419.503906 366.296875 C 440.019531 392.476562 462.46875 421.261719 469.386719 430.261719 C 476.304688 439.261719 485.503906 446.625 489.824219 446.625 C 501.0625 446.625 527.554688 478.636719 557.710938 528.660156 C 582.953125 570.53125 583.441406 572.269531 573.148438 583.640625 C 558.609375 599.707031 545.523438 598.371094 527.855469 579.019531 Z M 560.925781 572.324219 C 563.4375 568.261719 533.53125 517.539062 510.386719 486.605469 C 508.476562 484.050781 500.03125 485.535156 491.617188 489.898438 L 476.320312 497.835938 L 511.9375 537.679688 C 547.191406 577.121094 554.6875 582.421875 560.925781 572.324219 Z M 496.179688 475.976562 C 502.585938 465.613281 495.292969 463.417969 487.128906 473.25 C 482.4375 478.90625 481.984375 482.320312 485.929688 482.320312 C 489.410156 482.320312 494.023438 479.464844 496.179688 475.976562 Z M 463.804688 448.105469 C 453.761719 435.835938 429.242188 408.390625 409.316406 387.117188 L 373.085938 348.441406 L 396.820312 381.71875 C 425.785156 422.335938 468.996094 470.421875 476.527344 470.421875 C 479.570312 470.421875 473.847656 460.378906 463.804688 448.105469 Z M 163.523438 378.699219 C 170.507812 376.582031 183.277344 378.0625 191.898438 381.988281 C 205.957031 388.394531 209.402344 387.371094 225.425781 372.019531 C 238.035156 359.941406 251.554688 353.910156 271.429688 351.503906 C 292.210938 348.988281 298.992188 345.808594 297.355469 339.34375 C 283.515625 284.683594 273.648438 257.578125 248.613281 205.414062 C 232.460938 171.757812 219.25 140.636719 219.261719 136.253906 C 219.289062 122.503906 290.222656 275.960938 293.964844 297.871094 C 300.355469 335.257812 301.101562 335.847656 320.867188 319.214844 C 330.929688 310.746094 345.328125 303.820312 352.859375 303.820312 C 362.511719 303.820312 368.773438 298.472656 374.054688 285.722656 C 383.328125 263.335938 419.863281 232.414062 437.042969 232.414062 C 446.640625 232.414062 450.761719 227.703125 453.605469 213.480469 C 455.898438 202.015625 467.933594 184.445312 484.101562 168.953125 C 499.265625 154.421875 510.808594 137.921875 510.808594 130.773438 C 510.808594 123.847656 518.84375 110.679688 528.660156 101.507812 C 540.765625 90.203125 546.511719 79.128906 546.511719 67.117188 C 546.511719 47.949219 544.347656 46.605469 481.613281 26.789062 C 398.292969 0.472656 195.445312 33.621094 195.445312 73.550781 C 195.445312 82.898438 192.390625 84.445312 179.082031 81.835938 C 165.140625 79.101562 157.832031 83.628906 129.75 112.382812 C 92.171875 150.851562 76.910156 179.230469 55.433594 250.585938 C 44.492188 286.933594 40.28125 314.632812 40.222656 350.632812 C 40.179688 378.015625 41.125 401.398438 42.320312 402.59375 C 43.519531 403.792969 52.46875 401.765625 62.207031 398.085938 C 76.320312 392.761719 83.445312 393.25 97.292969 400.503906 C 113.582031 409.039062 115.796875 408.761719 132.742188 396.085938 C 142.683594 388.644531 156.535156 380.824219 163.523438 378.710938 Z M 98.007812 374.472656 C 92.265625 345.761719 93.597656 289.777344 100.820312 256.09375 C 104.414062 239.34375 108.1875 226.492188 109.207031 227.535156 C 110.226562 228.582031 108.234375 252.671875 104.777344 281.070312 C 100.511719 316.121094 100.410156 342.402344 104.460938 362.886719 C 107.742188 379.484375 108.472656 393.066406 106.078125 393.066406 C 103.6875 393.066406 100.054688 384.699219 98.007812 374.472656 Z M 204.90625 356.730469 C 196.378906 330.761719 183.542969 259.226562 183.542969 237.679688 C 183.542969 206.070312 189.285156 210.726562 192.71875 245.121094 C 196.207031 280.039062 199.835938 301.765625 207.382812 332.863281 C 213.191406 356.796875 211.203125 375.921875 204.90625 356.726562 Z M 346.214844 237.546875 C 338.472656 220.699219 291.199219 157.320312 267.277344 131.710938 C 257.871094 121.640625 252.492188 113.402344 255.320312 113.402344 C 267.644531 113.402344 358.59375 233.867188 354.820312 245.191406 C 353.644531 248.71875 349.769531 245.28125 346.214844 237.546875 Z M 184.488281 196.707031 C 184.488281 188.527344 185.839844 185.179688 187.488281 189.269531 C 189.140625 193.359375 189.140625 200.054688 187.488281 204.144531 C 185.839844 208.234375 184.488281 204.890625 184.488281 196.707031 Z M 378.613281 170.445312 C 336.015625 133.144531 262.316406 89.691406 241.5625 89.632812 C 235.835938 89.617188 231.152344 86.636719 231.152344 83.007812 C 231.152344 72.980469 258.953125 81.714844 299.578125 104.503906 C 336.761719 125.367188 357.042969 140.828125 402.953125 183.320312 C 445.484375 222.683594 427.273438 213.050781 378.617188 170.445312 Z M 135.949219 152.882812 C 135.949219 143.585938 153.058594 108.613281 159.578125 104.582031 C 163.425781 102.203125 160.695312 111.917969 153.503906 126.171875 C 139.425781 154.085938 135.949219 159.375 135.949219 152.882812 Z M 445.367188 125.730469 C 397.226562 99.832031 320.078125 71.753906 297.0625 71.753906 C 283.71875 71.753906 272.804688 69.074219 272.804688 65.804688 C 272.804688 52.289062 318.574219 61.308594 375.824219 86.109375 C 455.457031 120.605469 469.0625 127.40625 469.117188 132.742188 C 469.179688 138.609375 469.453125 138.691406 445.363281 125.730469 Z M 468.625 74.796875 C 443.570312 61.175781 333.957031 41.140625 303.335938 44.585938 L 275.785156 47.6875 L 302.5625 38.734375 C 322.183594 32.175781 332.988281 31.414062 343.007812 35.894531 C 350.523438 39.253906 364.960938 42.003906 375.089844 42.003906 C 398.726562 42.003906 468.910156 62.839844 484.195312 74.394531 C 499.042969 85.617188 489.007812 85.875 468.625 74.796875 Z M 177.355469 59.511719 C 170.230469 49.503906 163.136719 42.578125 161.597656 44.117188 C 157.578125 48.136719 177.863281 77.703125 184.636719 77.703125 C 187.757812 77.703125 184.476562 69.515625 177.355469 59.511719 Z M 177.355469 59.511719 " fill-opacity="1" fill-rule="nonzero"/></svg>